<mxfile host="app.diagrams.net" modified="2022-06-13T15:21:37.774Z" agent="5.0 (Windows)" etag="YsucPrluVgf924DCvYjz" version="20.0.1" type="github">
  <diagram id="QCB4x6QAdbcu5_DkEhvX" name="Page-1">
    <mxGraphModel dx="1093" dy="585" grid="1" gridSize="10" guides="1" tooltips="1" connect="1" arrows="1" fold="1" page="1" pageScale="1" pageWidth="827" pageHeight="1169" math="0" shadow="0">
      <root>
        <mxCell id="0" />
        <mxCell id="1" parent="0" />
        <mxCell id="v2bIIQAoZHvwmQP850kH-11" style="edgeStyle=orthogonalEdgeStyle;rounded=0;orthogonalLoop=1;jettySize=auto;html=1;entryX=0;entryY=0.5;entryDx=0;entryDy=0;" edge="1" parent="1" source="v2bIIQAoZHvwmQP850kH-1" target="v2bIIQAoZHvwmQP850kH-7">
          <mxGeometry relative="1" as="geometry" />
        </mxCell>
        <mxCell id="v2bIIQAoZHvwmQP850kH-12" style="edgeStyle=orthogonalEdgeStyle;rounded=0;orthogonalLoop=1;jettySize=auto;html=1;entryX=0;entryY=0.5;entryDx=0;entryDy=0;" edge="1" parent="1" source="v2bIIQAoZHvwmQP850kH-1" target="v2bIIQAoZHvwmQP850kH-3">
          <mxGeometry relative="1" as="geometry" />
        </mxCell>
        <mxCell id="v2bIIQAoZHvwmQP850kH-13" style="edgeStyle=orthogonalEdgeStyle;rounded=0;orthogonalLoop=1;jettySize=auto;html=1;entryX=0;entryY=0.5;entryDx=0;entryDy=0;" edge="1" parent="1" source="v2bIIQAoZHvwmQP850kH-1" target="v2bIIQAoZHvwmQP850kH-4">
          <mxGeometry relative="1" as="geometry" />
        </mxCell>
        <mxCell id="v2bIIQAoZHvwmQP850kH-14" style="edgeStyle=orthogonalEdgeStyle;rounded=0;orthogonalLoop=1;jettySize=auto;html=1;entryX=0;entryY=0.5;entryDx=0;entryDy=0;" edge="1" parent="1" source="v2bIIQAoZHvwmQP850kH-1" target="v2bIIQAoZHvwmQP850kH-6">
          <mxGeometry relative="1" as="geometry" />
        </mxCell>
        <mxCell id="v2bIIQAoZHvwmQP850kH-16" style="edgeStyle=orthogonalEdgeStyle;rounded=0;orthogonalLoop=1;jettySize=auto;html=1;entryX=0;entryY=0.5;entryDx=0;entryDy=0;" edge="1" parent="1" source="v2bIIQAoZHvwmQP850kH-1" target="v2bIIQAoZHvwmQP850kH-5">
          <mxGeometry relative="1" as="geometry">
            <mxPoint x="139" y="574" as="targetPoint" />
          </mxGeometry>
        </mxCell>
        <mxCell id="v2bIIQAoZHvwmQP850kH-17" style="edgeStyle=orthogonalEdgeStyle;rounded=0;orthogonalLoop=1;jettySize=auto;html=1;entryX=0;entryY=0.5;entryDx=0;entryDy=0;" edge="1" parent="1" source="v2bIIQAoZHvwmQP850kH-1" target="v2bIIQAoZHvwmQP850kH-8">
          <mxGeometry relative="1" as="geometry" />
        </mxCell>
        <mxCell id="v2bIIQAoZHvwmQP850kH-18" style="edgeStyle=orthogonalEdgeStyle;rounded=0;orthogonalLoop=1;jettySize=auto;html=1;entryX=0;entryY=0.5;entryDx=0;entryDy=0;" edge="1" parent="1" source="v2bIIQAoZHvwmQP850kH-1" target="v2bIIQAoZHvwmQP850kH-10">
          <mxGeometry relative="1" as="geometry" />
        </mxCell>
        <mxCell id="v2bIIQAoZHvwmQP850kH-67" style="edgeStyle=orthogonalEdgeStyle;rounded=0;orthogonalLoop=1;jettySize=auto;html=1;entryX=0;entryY=0.5;entryDx=0;entryDy=0;" edge="1" parent="1" source="v2bIIQAoZHvwmQP850kH-1" target="v2bIIQAoZHvwmQP850kH-62">
          <mxGeometry relative="1" as="geometry" />
        </mxCell>
        <mxCell id="v2bIIQAoZHvwmQP850kH-68" style="edgeStyle=orthogonalEdgeStyle;rounded=0;orthogonalLoop=1;jettySize=auto;html=1;entryX=0;entryY=0.5;entryDx=0;entryDy=0;" edge="1" parent="1" source="v2bIIQAoZHvwmQP850kH-1" target="v2bIIQAoZHvwmQP850kH-63">
          <mxGeometry relative="1" as="geometry" />
        </mxCell>
        <mxCell id="v2bIIQAoZHvwmQP850kH-69" style="edgeStyle=orthogonalEdgeStyle;rounded=0;orthogonalLoop=1;jettySize=auto;html=1;entryX=0;entryY=0.5;entryDx=0;entryDy=0;" edge="1" parent="1" source="v2bIIQAoZHvwmQP850kH-1" target="v2bIIQAoZHvwmQP850kH-64">
          <mxGeometry relative="1" as="geometry" />
        </mxCell>
        <mxCell id="v2bIIQAoZHvwmQP850kH-70" style="edgeStyle=orthogonalEdgeStyle;rounded=0;orthogonalLoop=1;jettySize=auto;html=1;entryX=0;entryY=0.5;entryDx=0;entryDy=0;" edge="1" parent="1" source="v2bIIQAoZHvwmQP850kH-1" target="v2bIIQAoZHvwmQP850kH-65">
          <mxGeometry relative="1" as="geometry" />
        </mxCell>
        <mxCell id="v2bIIQAoZHvwmQP850kH-71" style="edgeStyle=orthogonalEdgeStyle;rounded=0;orthogonalLoop=1;jettySize=auto;html=1;entryX=0;entryY=0.5;entryDx=0;entryDy=0;" edge="1" parent="1" source="v2bIIQAoZHvwmQP850kH-1" target="v2bIIQAoZHvwmQP850kH-66">
          <mxGeometry relative="1" as="geometry" />
        </mxCell>
        <mxCell id="v2bIIQAoZHvwmQP850kH-1" value="www" style="rounded=1;whiteSpace=wrap;html=1;fillColor=#fff2cc;strokeColor=#d6b656;" vertex="1" parent="1">
          <mxGeometry x="9" y="504" width="100" height="20" as="geometry" />
        </mxCell>
        <mxCell id="v2bIIQAoZHvwmQP850kH-115" style="edgeStyle=orthogonalEdgeStyle;rounded=0;orthogonalLoop=1;jettySize=auto;html=1;entryX=0;entryY=0.5;entryDx=0;entryDy=0;" edge="1" parent="1" source="v2bIIQAoZHvwmQP850kH-3" target="v2bIIQAoZHvwmQP850kH-113">
          <mxGeometry relative="1" as="geometry">
            <Array as="points">
              <mxPoint x="439" y="484" />
              <mxPoint x="439" y="464" />
            </Array>
          </mxGeometry>
        </mxCell>
        <mxCell id="v2bIIQAoZHvwmQP850kH-117" style="edgeStyle=orthogonalEdgeStyle;rounded=0;orthogonalLoop=1;jettySize=auto;html=1;entryX=0;entryY=0.5;entryDx=0;entryDy=0;" edge="1" parent="1" source="v2bIIQAoZHvwmQP850kH-3" target="v2bIIQAoZHvwmQP850kH-114">
          <mxGeometry relative="1" as="geometry">
            <Array as="points">
              <mxPoint x="439" y="484" />
              <mxPoint x="439" y="494" />
            </Array>
          </mxGeometry>
        </mxCell>
        <mxCell id="v2bIIQAoZHvwmQP850kH-118" style="edgeStyle=orthogonalEdgeStyle;rounded=0;orthogonalLoop=1;jettySize=auto;html=1;entryX=0;entryY=0.5;entryDx=0;entryDy=0;" edge="1" parent="1" source="v2bIIQAoZHvwmQP850kH-3" target="v2bIIQAoZHvwmQP850kH-111">
          <mxGeometry relative="1" as="geometry">
            <Array as="points">
              <mxPoint x="439" y="484" />
              <mxPoint x="439" y="434" />
            </Array>
          </mxGeometry>
        </mxCell>
        <mxCell id="v2bIIQAoZHvwmQP850kH-3" value="application" style="rounded=1;whiteSpace=wrap;html=1;fillColor=#fff2cc;strokeColor=#d6b656;" vertex="1" parent="1">
          <mxGeometry x="149" y="474" width="100" height="20" as="geometry" />
        </mxCell>
        <mxCell id="v2bIIQAoZHvwmQP850kH-106" style="edgeStyle=orthogonalEdgeStyle;rounded=0;orthogonalLoop=1;jettySize=auto;html=1;entryX=0;entryY=0.5;entryDx=0;entryDy=0;" edge="1" parent="1" source="v2bIIQAoZHvwmQP850kH-4" target="v2bIIQAoZHvwmQP850kH-100">
          <mxGeometry relative="1" as="geometry">
            <Array as="points">
              <mxPoint x="329" y="514" />
              <mxPoint x="329" y="584" />
            </Array>
          </mxGeometry>
        </mxCell>
        <mxCell id="v2bIIQAoZHvwmQP850kH-107" style="edgeStyle=orthogonalEdgeStyle;rounded=0;orthogonalLoop=1;jettySize=auto;html=1;entryX=0;entryY=0.5;entryDx=0;entryDy=0;" edge="1" parent="1" source="v2bIIQAoZHvwmQP850kH-4" target="v2bIIQAoZHvwmQP850kH-101">
          <mxGeometry relative="1" as="geometry">
            <Array as="points">
              <mxPoint x="329" y="514" />
              <mxPoint x="329" y="554" />
            </Array>
          </mxGeometry>
        </mxCell>
        <mxCell id="v2bIIQAoZHvwmQP850kH-108" style="edgeStyle=orthogonalEdgeStyle;rounded=0;orthogonalLoop=1;jettySize=auto;html=1;entryX=0;entryY=0.5;entryDx=0;entryDy=0;" edge="1" parent="1" source="v2bIIQAoZHvwmQP850kH-4" target="v2bIIQAoZHvwmQP850kH-102">
          <mxGeometry relative="1" as="geometry">
            <Array as="points">
              <mxPoint x="329" y="514" />
              <mxPoint x="329" y="524" />
            </Array>
          </mxGeometry>
        </mxCell>
        <mxCell id="v2bIIQAoZHvwmQP850kH-4" value="images" style="rounded=1;whiteSpace=wrap;html=1;fillColor=#fff2cc;strokeColor=#d6b656;" vertex="1" parent="1">
          <mxGeometry x="149" y="504" width="100" height="20" as="geometry" />
        </mxCell>
        <mxCell id="v2bIIQAoZHvwmQP850kH-85" style="edgeStyle=orthogonalEdgeStyle;rounded=0;orthogonalLoop=1;jettySize=auto;html=1;entryX=0;entryY=0.5;entryDx=0;entryDy=0;" edge="1" parent="1" source="v2bIIQAoZHvwmQP850kH-5" target="v2bIIQAoZHvwmQP850kH-83">
          <mxGeometry relative="1" as="geometry" />
        </mxCell>
        <mxCell id="v2bIIQAoZHvwmQP850kH-86" style="edgeStyle=orthogonalEdgeStyle;rounded=0;orthogonalLoop=1;jettySize=auto;html=1;entryX=0;entryY=0.5;entryDx=0;entryDy=0;" edge="1" parent="1" source="v2bIIQAoZHvwmQP850kH-5" target="v2bIIQAoZHvwmQP850kH-84">
          <mxGeometry relative="1" as="geometry">
            <mxPoint x="329" y="834" as="targetPoint" />
          </mxGeometry>
        </mxCell>
        <mxCell id="v2bIIQAoZHvwmQP850kH-87" style="edgeStyle=orthogonalEdgeStyle;rounded=0;orthogonalLoop=1;jettySize=auto;html=1;entryX=0;entryY=0.5;entryDx=0;entryDy=0;" edge="1" parent="1" source="v2bIIQAoZHvwmQP850kH-5" target="v2bIIQAoZHvwmQP850kH-81">
          <mxGeometry relative="1" as="geometry" />
        </mxCell>
        <mxCell id="v2bIIQAoZHvwmQP850kH-5" value="script" style="rounded=1;whiteSpace=wrap;html=1;fillColor=#fff2cc;strokeColor=#d6b656;" vertex="1" parent="1">
          <mxGeometry x="149" y="564" width="100" height="20" as="geometry" />
        </mxCell>
        <mxCell id="v2bIIQAoZHvwmQP850kH-95" style="edgeStyle=orthogonalEdgeStyle;rounded=0;orthogonalLoop=1;jettySize=auto;html=1;entryX=0;entryY=0.5;entryDx=0;entryDy=0;" edge="1" parent="1" source="v2bIIQAoZHvwmQP850kH-6" target="v2bIIQAoZHvwmQP850kH-88">
          <mxGeometry relative="1" as="geometry" />
        </mxCell>
        <mxCell id="v2bIIQAoZHvwmQP850kH-96" style="edgeStyle=orthogonalEdgeStyle;rounded=0;orthogonalLoop=1;jettySize=auto;html=1;entryX=0;entryY=0.5;entryDx=0;entryDy=0;" edge="1" parent="1" source="v2bIIQAoZHvwmQP850kH-6" target="v2bIIQAoZHvwmQP850kH-91">
          <mxGeometry relative="1" as="geometry" />
        </mxCell>
        <mxCell id="v2bIIQAoZHvwmQP850kH-97" style="edgeStyle=orthogonalEdgeStyle;rounded=0;orthogonalLoop=1;jettySize=auto;html=1;entryX=0;entryY=0.5;entryDx=0;entryDy=0;" edge="1" parent="1" source="v2bIIQAoZHvwmQP850kH-6" target="v2bIIQAoZHvwmQP850kH-92">
          <mxGeometry relative="1" as="geometry" />
        </mxCell>
        <mxCell id="v2bIIQAoZHvwmQP850kH-98" style="edgeStyle=orthogonalEdgeStyle;rounded=0;orthogonalLoop=1;jettySize=auto;html=1;entryX=0;entryY=0.5;entryDx=0;entryDy=0;" edge="1" parent="1" source="v2bIIQAoZHvwmQP850kH-6" target="v2bIIQAoZHvwmQP850kH-93">
          <mxGeometry relative="1" as="geometry" />
        </mxCell>
        <mxCell id="v2bIIQAoZHvwmQP850kH-99" style="edgeStyle=orthogonalEdgeStyle;rounded=0;orthogonalLoop=1;jettySize=auto;html=1;entryX=0;entryY=0.5;entryDx=0;entryDy=0;" edge="1" parent="1" source="v2bIIQAoZHvwmQP850kH-6" target="v2bIIQAoZHvwmQP850kH-94">
          <mxGeometry relative="1" as="geometry" />
        </mxCell>
        <mxCell id="v2bIIQAoZHvwmQP850kH-6" value="lib" style="rounded=1;whiteSpace=wrap;html=1;fillColor=#fff2cc;strokeColor=#d6b656;" vertex="1" parent="1">
          <mxGeometry x="149" y="534" width="100" height="20" as="geometry" />
        </mxCell>
        <mxCell id="v2bIIQAoZHvwmQP850kH-24" style="edgeStyle=orthogonalEdgeStyle;rounded=0;orthogonalLoop=1;jettySize=auto;html=1;entryX=0;entryY=0.5;entryDx=0;entryDy=0;" edge="1" parent="1" source="v2bIIQAoZHvwmQP850kH-7" target="v2bIIQAoZHvwmQP850kH-19">
          <mxGeometry relative="1" as="geometry" />
        </mxCell>
        <mxCell id="v2bIIQAoZHvwmQP850kH-30" style="edgeStyle=orthogonalEdgeStyle;rounded=0;orthogonalLoop=1;jettySize=auto;html=1;entryX=0;entryY=0.5;entryDx=0;entryDy=0;" edge="1" parent="1" source="v2bIIQAoZHvwmQP850kH-7" target="v2bIIQAoZHvwmQP850kH-29">
          <mxGeometry relative="1" as="geometry" />
        </mxCell>
        <mxCell id="v2bIIQAoZHvwmQP850kH-51" style="edgeStyle=orthogonalEdgeStyle;rounded=0;orthogonalLoop=1;jettySize=auto;html=1;entryX=0;entryY=0.5;entryDx=0;entryDy=0;" edge="1" parent="1" source="v2bIIQAoZHvwmQP850kH-7" target="v2bIIQAoZHvwmQP850kH-41">
          <mxGeometry relative="1" as="geometry">
            <mxPoint x="429" y="143.42857142857142" as="targetPoint" />
            <Array as="points">
              <mxPoint x="429" y="454" />
              <mxPoint x="429" y="164" />
            </Array>
          </mxGeometry>
        </mxCell>
        <mxCell id="v2bIIQAoZHvwmQP850kH-53" style="edgeStyle=orthogonalEdgeStyle;rounded=0;orthogonalLoop=1;jettySize=auto;html=1;entryX=0;entryY=0.5;entryDx=0;entryDy=0;" edge="1" parent="1" source="v2bIIQAoZHvwmQP850kH-7" target="v2bIIQAoZHvwmQP850kH-42">
          <mxGeometry relative="1" as="geometry">
            <Array as="points">
              <mxPoint x="429" y="454" />
              <mxPoint x="429" y="194" />
            </Array>
          </mxGeometry>
        </mxCell>
        <mxCell id="v2bIIQAoZHvwmQP850kH-54" style="edgeStyle=orthogonalEdgeStyle;rounded=0;orthogonalLoop=1;jettySize=auto;html=1;entryX=0;entryY=0.5;entryDx=0;entryDy=0;" edge="1" parent="1" source="v2bIIQAoZHvwmQP850kH-7" target="v2bIIQAoZHvwmQP850kH-43">
          <mxGeometry relative="1" as="geometry">
            <Array as="points">
              <mxPoint x="429" y="454" />
              <mxPoint x="429" y="224" />
            </Array>
          </mxGeometry>
        </mxCell>
        <mxCell id="v2bIIQAoZHvwmQP850kH-55" style="edgeStyle=orthogonalEdgeStyle;rounded=0;orthogonalLoop=1;jettySize=auto;html=1;entryX=0;entryY=0.5;entryDx=0;entryDy=0;" edge="1" parent="1" source="v2bIIQAoZHvwmQP850kH-7" target="v2bIIQAoZHvwmQP850kH-44">
          <mxGeometry relative="1" as="geometry">
            <Array as="points">
              <mxPoint x="429" y="454" />
              <mxPoint x="429" y="254" />
            </Array>
          </mxGeometry>
        </mxCell>
        <mxCell id="v2bIIQAoZHvwmQP850kH-56" style="edgeStyle=orthogonalEdgeStyle;rounded=0;orthogonalLoop=1;jettySize=auto;html=1;entryX=0;entryY=0.5;entryDx=0;entryDy=0;" edge="1" parent="1" source="v2bIIQAoZHvwmQP850kH-7" target="v2bIIQAoZHvwmQP850kH-45">
          <mxGeometry relative="1" as="geometry">
            <Array as="points">
              <mxPoint x="429" y="454" />
              <mxPoint x="429" y="284" />
            </Array>
          </mxGeometry>
        </mxCell>
        <mxCell id="v2bIIQAoZHvwmQP850kH-57" style="edgeStyle=orthogonalEdgeStyle;rounded=0;orthogonalLoop=1;jettySize=auto;html=1;entryX=0;entryY=0.5;entryDx=0;entryDy=0;" edge="1" parent="1" source="v2bIIQAoZHvwmQP850kH-7" target="v2bIIQAoZHvwmQP850kH-46">
          <mxGeometry relative="1" as="geometry">
            <Array as="points">
              <mxPoint x="429" y="454" />
              <mxPoint x="429" y="314" />
            </Array>
          </mxGeometry>
        </mxCell>
        <mxCell id="v2bIIQAoZHvwmQP850kH-58" style="edgeStyle=orthogonalEdgeStyle;rounded=0;orthogonalLoop=1;jettySize=auto;html=1;entryX=0;entryY=0.5;entryDx=0;entryDy=0;" edge="1" parent="1" source="v2bIIQAoZHvwmQP850kH-7" target="v2bIIQAoZHvwmQP850kH-47">
          <mxGeometry relative="1" as="geometry">
            <Array as="points">
              <mxPoint x="429" y="454" />
              <mxPoint x="429" y="344" />
            </Array>
          </mxGeometry>
        </mxCell>
        <mxCell id="v2bIIQAoZHvwmQP850kH-59" style="edgeStyle=orthogonalEdgeStyle;rounded=0;orthogonalLoop=1;jettySize=auto;html=1;entryX=0;entryY=0.5;entryDx=0;entryDy=0;" edge="1" parent="1" source="v2bIIQAoZHvwmQP850kH-7" target="v2bIIQAoZHvwmQP850kH-48">
          <mxGeometry relative="1" as="geometry">
            <Array as="points">
              <mxPoint x="429" y="454" />
              <mxPoint x="429" y="374" />
            </Array>
          </mxGeometry>
        </mxCell>
        <mxCell id="v2bIIQAoZHvwmQP850kH-60" style="edgeStyle=orthogonalEdgeStyle;rounded=0;orthogonalLoop=1;jettySize=auto;html=1;entryX=0;entryY=0.5;entryDx=0;entryDy=0;" edge="1" parent="1" source="v2bIIQAoZHvwmQP850kH-7" target="v2bIIQAoZHvwmQP850kH-49">
          <mxGeometry relative="1" as="geometry">
            <Array as="points">
              <mxPoint x="429" y="454" />
              <mxPoint x="429" y="404" />
            </Array>
          </mxGeometry>
        </mxCell>
        <mxCell id="v2bIIQAoZHvwmQP850kH-61" style="edgeStyle=orthogonalEdgeStyle;rounded=0;orthogonalLoop=1;jettySize=auto;html=1;entryX=0.5;entryY=1;entryDx=0;entryDy=0;" edge="1" parent="1" source="v2bIIQAoZHvwmQP850kH-7" target="v2bIIQAoZHvwmQP850kH-50">
          <mxGeometry relative="1" as="geometry" />
        </mxCell>
        <mxCell id="v2bIIQAoZHvwmQP850kH-7" value="admin" style="rounded=1;whiteSpace=wrap;html=1;fillColor=#fff2cc;strokeColor=#d6b656;" vertex="1" parent="1">
          <mxGeometry x="149" y="444" width="100" height="20" as="geometry" />
        </mxCell>
        <mxCell id="v2bIIQAoZHvwmQP850kH-77" style="edgeStyle=orthogonalEdgeStyle;rounded=0;orthogonalLoop=1;jettySize=auto;html=1;entryX=0;entryY=0.5;entryDx=0;entryDy=0;" edge="1" parent="1" source="v2bIIQAoZHvwmQP850kH-8" target="v2bIIQAoZHvwmQP850kH-72">
          <mxGeometry relative="1" as="geometry" />
        </mxCell>
        <mxCell id="v2bIIQAoZHvwmQP850kH-78" style="edgeStyle=orthogonalEdgeStyle;rounded=0;orthogonalLoop=1;jettySize=auto;html=1;entryX=0;entryY=0.5;entryDx=0;entryDy=0;" edge="1" parent="1" source="v2bIIQAoZHvwmQP850kH-8" target="v2bIIQAoZHvwmQP850kH-73">
          <mxGeometry relative="1" as="geometry" />
        </mxCell>
        <mxCell id="v2bIIQAoZHvwmQP850kH-79" style="edgeStyle=orthogonalEdgeStyle;rounded=0;orthogonalLoop=1;jettySize=auto;html=1;entryX=0;entryY=0.5;entryDx=0;entryDy=0;" edge="1" parent="1" source="v2bIIQAoZHvwmQP850kH-8" target="v2bIIQAoZHvwmQP850kH-74">
          <mxGeometry relative="1" as="geometry" />
        </mxCell>
        <mxCell id="v2bIIQAoZHvwmQP850kH-80" style="edgeStyle=orthogonalEdgeStyle;rounded=0;orthogonalLoop=1;jettySize=auto;html=1;entryX=0;entryY=0.5;entryDx=0;entryDy=0;" edge="1" parent="1" source="v2bIIQAoZHvwmQP850kH-8" target="v2bIIQAoZHvwmQP850kH-75">
          <mxGeometry relative="1" as="geometry" />
        </mxCell>
        <mxCell id="v2bIIQAoZHvwmQP850kH-8" value="templates" style="rounded=1;whiteSpace=wrap;html=1;fillColor=#fff2cc;strokeColor=#d6b656;" vertex="1" parent="1">
          <mxGeometry x="149" y="594" width="100" height="20" as="geometry" />
        </mxCell>
        <mxCell id="v2bIIQAoZHvwmQP850kH-10" value="uploads" style="rounded=1;whiteSpace=wrap;html=1;fillColor=#fff2cc;strokeColor=#d6b656;" vertex="1" parent="1">
          <mxGeometry x="149" y="624" width="100" height="20" as="geometry" />
        </mxCell>
        <mxCell id="v2bIIQAoZHvwmQP850kH-31" style="edgeStyle=orthogonalEdgeStyle;rounded=0;orthogonalLoop=1;jettySize=auto;html=1;entryX=1;entryY=0.5;entryDx=0;entryDy=0;" edge="1" parent="1" source="v2bIIQAoZHvwmQP850kH-19" target="v2bIIQAoZHvwmQP850kH-23">
          <mxGeometry relative="1" as="geometry">
            <mxPoint x="409" y="284" as="targetPoint" />
            <Array as="points">
              <mxPoint x="419" y="164" />
              <mxPoint x="419" y="284" />
            </Array>
          </mxGeometry>
        </mxCell>
        <mxCell id="v2bIIQAoZHvwmQP850kH-33" style="edgeStyle=orthogonalEdgeStyle;rounded=0;orthogonalLoop=1;jettySize=auto;html=1;entryX=1;entryY=0.5;entryDx=0;entryDy=0;" edge="1" parent="1" source="v2bIIQAoZHvwmQP850kH-19" target="v2bIIQAoZHvwmQP850kH-22">
          <mxGeometry relative="1" as="geometry">
            <mxPoint x="409" y="194" as="targetPoint" />
            <Array as="points">
              <mxPoint x="419" y="164" />
              <mxPoint x="419" y="254" />
            </Array>
          </mxGeometry>
        </mxCell>
        <mxCell id="v2bIIQAoZHvwmQP850kH-34" style="edgeStyle=orthogonalEdgeStyle;rounded=0;orthogonalLoop=1;jettySize=auto;html=1;entryX=1;entryY=0.5;entryDx=0;entryDy=0;" edge="1" parent="1" source="v2bIIQAoZHvwmQP850kH-19" target="v2bIIQAoZHvwmQP850kH-21">
          <mxGeometry relative="1" as="geometry">
            <mxPoint x="409" y="194" as="targetPoint" />
            <Array as="points">
              <mxPoint x="419" y="164" />
              <mxPoint x="419" y="224" />
            </Array>
          </mxGeometry>
        </mxCell>
        <mxCell id="v2bIIQAoZHvwmQP850kH-35" style="edgeStyle=orthogonalEdgeStyle;rounded=0;orthogonalLoop=1;jettySize=auto;html=1;entryX=1;entryY=0.5;entryDx=0;entryDy=0;" edge="1" parent="1" source="v2bIIQAoZHvwmQP850kH-19" target="v2bIIQAoZHvwmQP850kH-20">
          <mxGeometry relative="1" as="geometry">
            <mxPoint x="409" y="194" as="targetPoint" />
            <Array as="points">
              <mxPoint x="419" y="164" />
              <mxPoint x="419" y="194" />
            </Array>
          </mxGeometry>
        </mxCell>
        <mxCell id="v2bIIQAoZHvwmQP850kH-19" value="&lt;span lang=&quot;EN-US&quot;&gt;action &lt;/span&gt;" style="rounded=1;whiteSpace=wrap;html=1;fillColor=#fff2cc;strokeColor=#d6b656;" vertex="1" parent="1">
          <mxGeometry x="299" y="154" width="100" height="20" as="geometry" />
        </mxCell>
        <mxCell id="v2bIIQAoZHvwmQP850kH-20" value="&lt;span lang=&quot;EN-US&quot;&gt;add_product&lt;/span&gt;.php" style="rounded=1;whiteSpace=wrap;html=1;fillColor=#6a00ff;fontColor=#ffffff;strokeColor=#3700CC;" vertex="1" parent="1">
          <mxGeometry x="299" y="184" width="100" height="20" as="geometry" />
        </mxCell>
        <mxCell id="v2bIIQAoZHvwmQP850kH-21" value="&lt;span lang=&quot;EN-US&quot;&gt;del_image&lt;/span&gt;.php" style="rounded=1;whiteSpace=wrap;html=1;fillColor=#6a00ff;fontColor=#ffffff;strokeColor=#3700CC;" vertex="1" parent="1">
          <mxGeometry x="299" y="214" width="100" height="20" as="geometry" />
        </mxCell>
        <mxCell id="v2bIIQAoZHvwmQP850kH-22" value="&lt;span lang=&quot;EN-US&quot;&gt;delete_product&lt;/span&gt;.php" style="rounded=1;whiteSpace=wrap;html=1;fillColor=#6a00ff;fontColor=#ffffff;strokeColor=#3700CC;" vertex="1" parent="1">
          <mxGeometry x="299" y="244" width="100" height="20" as="geometry" />
        </mxCell>
        <mxCell id="v2bIIQAoZHvwmQP850kH-23" value="&lt;span lang=&quot;EN-US&quot;&gt;edit_product&lt;/span&gt;.php" style="rounded=1;whiteSpace=wrap;html=1;fillColor=#6a00ff;fontColor=#ffffff;strokeColor=#3700CC;" vertex="1" parent="1">
          <mxGeometry x="299" y="274" width="100" height="20" as="geometry" />
        </mxCell>
        <mxCell id="v2bIIQAoZHvwmQP850kH-38" style="edgeStyle=orthogonalEdgeStyle;rounded=0;orthogonalLoop=1;jettySize=auto;html=1;entryX=1;entryY=0.5;entryDx=0;entryDy=0;" edge="1" parent="1" source="v2bIIQAoZHvwmQP850kH-29" target="v2bIIQAoZHvwmQP850kH-36">
          <mxGeometry relative="1" as="geometry">
            <mxPoint x="409" y="354" as="targetPoint" />
            <Array as="points">
              <mxPoint x="419" y="324" />
              <mxPoint x="419" y="384" />
            </Array>
          </mxGeometry>
        </mxCell>
        <mxCell id="v2bIIQAoZHvwmQP850kH-40" style="edgeStyle=orthogonalEdgeStyle;rounded=0;orthogonalLoop=1;jettySize=auto;html=1;entryX=1;entryY=0.5;entryDx=0;entryDy=0;" edge="1" parent="1" source="v2bIIQAoZHvwmQP850kH-29" target="v2bIIQAoZHvwmQP850kH-39">
          <mxGeometry relative="1" as="geometry">
            <mxPoint x="409" y="354" as="targetPoint" />
            <Array as="points">
              <mxPoint x="419" y="324" />
              <mxPoint x="419" y="354" />
            </Array>
          </mxGeometry>
        </mxCell>
        <mxCell id="v2bIIQAoZHvwmQP850kH-29" value="design" style="rounded=1;whiteSpace=wrap;html=1;fillColor=#fff2cc;strokeColor=#d6b656;" vertex="1" parent="1">
          <mxGeometry x="299" y="314" width="100" height="20" as="geometry" />
        </mxCell>
        <mxCell id="v2bIIQAoZHvwmQP850kH-36" value="&lt;div&gt;style.css&lt;/div&gt;" style="rounded=1;whiteSpace=wrap;html=1;fillColor=#6a00ff;fontColor=#ffffff;strokeColor=#3700CC;" vertex="1" parent="1">
          <mxGeometry x="299" y="374" width="100" height="20" as="geometry" />
        </mxCell>
        <mxCell id="v2bIIQAoZHvwmQP850kH-39" value="images" style="rounded=1;whiteSpace=wrap;html=1;fillColor=#fff2cc;strokeColor=#d6b656;" vertex="1" parent="1">
          <mxGeometry x="299" y="344" width="100" height="20" as="geometry" />
        </mxCell>
        <mxCell id="v2bIIQAoZHvwmQP850kH-41" value="adminbar.php" style="rounded=1;whiteSpace=wrap;html=1;fillColor=#6a00ff;fontColor=#ffffff;strokeColor=#3700CC;" vertex="1" parent="1">
          <mxGeometry x="449" y="154" width="100" height="20" as="geometry" />
        </mxCell>
        <mxCell id="v2bIIQAoZHvwmQP850kH-42" value="ajax.php" style="rounded=1;whiteSpace=wrap;html=1;fillColor=#6a00ff;fontColor=#ffffff;strokeColor=#3700CC;" vertex="1" parent="1">
          <mxGeometry x="449" y="184" width="100" height="20" as="geometry" />
        </mxCell>
        <mxCell id="v2bIIQAoZHvwmQP850kH-43" value="catalog.php" style="rounded=1;whiteSpace=wrap;html=1;fillColor=#6a00ff;fontColor=#ffffff;strokeColor=#3700CC;" vertex="1" parent="1">
          <mxGeometry x="449" y="214" width="100" height="20" as="geometry" />
        </mxCell>
        <mxCell id="v2bIIQAoZHvwmQP850kH-44" value="config.php" style="rounded=1;whiteSpace=wrap;html=1;fillColor=#6a00ff;fontColor=#ffffff;strokeColor=#3700CC;" vertex="1" parent="1">
          <mxGeometry x="449" y="244" width="100" height="20" as="geometry" />
        </mxCell>
        <mxCell id="v2bIIQAoZHvwmQP850kH-45" value="index.php" style="rounded=1;whiteSpace=wrap;html=1;fillColor=#6a00ff;fontColor=#ffffff;strokeColor=#3700CC;" vertex="1" parent="1">
          <mxGeometry x="449" y="274" width="100" height="20" as="geometry" />
        </mxCell>
        <mxCell id="v2bIIQAoZHvwmQP850kH-46" value="loader.gif" style="rounded=1;whiteSpace=wrap;html=1;fillColor=#6a00ff;fontColor=#ffffff;strokeColor=#3700CC;" vertex="1" parent="1">
          <mxGeometry x="449" y="304" width="100" height="20" as="geometry" />
        </mxCell>
        <mxCell id="v2bIIQAoZHvwmQP850kH-47" value="loadimage.php" style="rounded=1;whiteSpace=wrap;html=1;fillColor=#6a00ff;fontColor=#ffffff;strokeColor=#3700CC;" vertex="1" parent="1">
          <mxGeometry x="449" y="334" width="100" height="20" as="geometry" />
        </mxCell>
        <mxCell id="v2bIIQAoZHvwmQP850kH-48" value="menu.php" style="rounded=1;whiteSpace=wrap;html=1;fillColor=#6a00ff;fontColor=#ffffff;strokeColor=#3700CC;" vertex="1" parent="1">
          <mxGeometry x="449" y="364" width="100" height="20" as="geometry" />
        </mxCell>
        <mxCell id="v2bIIQAoZHvwmQP850kH-49" value="page.php" style="rounded=1;whiteSpace=wrap;html=1;fillColor=#6a00ff;fontColor=#ffffff;strokeColor=#3700CC;" vertex="1" parent="1">
          <mxGeometry x="449" y="394" width="100" height="20" as="geometry" />
        </mxCell>
        <mxCell id="v2bIIQAoZHvwmQP850kH-50" value="settings.php" style="rounded=1;whiteSpace=wrap;html=1;fillColor=#6a00ff;fontColor=#ffffff;strokeColor=#3700CC;" vertex="1" parent="1">
          <mxGeometry x="299" y="414" width="100" height="20" as="geometry" />
        </mxCell>
        <mxCell id="v2bIIQAoZHvwmQP850kH-62" value=".htaccess" style="rounded=1;whiteSpace=wrap;html=1;fillColor=#6a00ff;strokeColor=#3700CC;fontColor=#ffffff;" vertex="1" parent="1">
          <mxGeometry x="149" y="664" width="100" height="20" as="geometry" />
        </mxCell>
        <mxCell id="v2bIIQAoZHvwmQP850kH-63" value="config.php" style="rounded=1;whiteSpace=wrap;html=1;fillColor=#6a00ff;strokeColor=#3700CC;fontColor=#ffffff;" vertex="1" parent="1">
          <mxGeometry x="149" y="689" width="100" height="20" as="geometry" />
        </mxCell>
        <mxCell id="v2bIIQAoZHvwmQP850kH-64" value="function.php" style="rounded=1;whiteSpace=wrap;html=1;fillColor=#6a00ff;strokeColor=#3700CC;fontColor=#ffffff;" vertex="1" parent="1">
          <mxGeometry x="149" y="714" width="100" height="20" as="geometry" />
        </mxCell>
        <mxCell id="v2bIIQAoZHvwmQP850kH-65" value="index.php" style="rounded=1;whiteSpace=wrap;html=1;fillColor=#6a00ff;strokeColor=#3700CC;fontColor=#ffffff;" vertex="1" parent="1">
          <mxGeometry x="149" y="744" width="100" height="20" as="geometry" />
        </mxCell>
        <mxCell id="v2bIIQAoZHvwmQP850kH-66" value="setting_sql.php" style="rounded=1;whiteSpace=wrap;html=1;fillColor=#6a00ff;strokeColor=#3700CC;fontColor=#ffffff;" vertex="1" parent="1">
          <mxGeometry x="149" y="774" width="100" height="20" as="geometry" />
        </mxCell>
        <mxCell id="v2bIIQAoZHvwmQP850kH-72" value="&lt;div&gt;style.php&lt;/div&gt;" style="rounded=1;whiteSpace=wrap;html=1;fillColor=#6a00ff;fontColor=#ffffff;strokeColor=#3700CC;" vertex="1" parent="1">
          <mxGeometry x="289" y="994" width="100" height="20" as="geometry" />
        </mxCell>
        <mxCell id="v2bIIQAoZHvwmQP850kH-73" value="index.php" style="rounded=1;whiteSpace=wrap;html=1;fillColor=#6a00ff;fontColor=#ffffff;strokeColor=#3700CC;" vertex="1" parent="1">
          <mxGeometry x="289" y="964" width="100" height="20" as="geometry" />
        </mxCell>
        <mxCell id="v2bIIQAoZHvwmQP850kH-74" value="header.php" style="rounded=1;whiteSpace=wrap;html=1;fillColor=#6a00ff;fontColor=#ffffff;strokeColor=#3700CC;" vertex="1" parent="1">
          <mxGeometry x="289" y="934" width="100" height="20" as="geometry" />
        </mxCell>
        <mxCell id="v2bIIQAoZHvwmQP850kH-75" value="footer.php" style="rounded=1;whiteSpace=wrap;html=1;fillColor=#6a00ff;fontColor=#ffffff;strokeColor=#3700CC;" vertex="1" parent="1">
          <mxGeometry x="289" y="904" width="100" height="20" as="geometry" />
        </mxCell>
        <mxCell id="v2bIIQAoZHvwmQP850kH-81" value="admin.js" style="rounded=1;whiteSpace=wrap;html=1;fillColor=#6a00ff;fontColor=#ffffff;strokeColor=#3700CC;" vertex="1" parent="1">
          <mxGeometry x="333" y="794" width="100" height="20" as="geometry" />
        </mxCell>
        <mxCell id="v2bIIQAoZHvwmQP850kH-83" value="&lt;div&gt;jquery-1.7.2.min.js&lt;/div&gt;" style="rounded=1;whiteSpace=wrap;html=1;fillColor=#6a00ff;fontColor=#ffffff;strokeColor=#3700CC;" vertex="1" parent="1">
          <mxGeometry x="333" y="854" width="100" height="20" as="geometry" />
        </mxCell>
        <mxCell id="v2bIIQAoZHvwmQP850kH-84" value="jquery.form.js" style="rounded=1;whiteSpace=wrap;html=1;fillColor=#6a00ff;fontColor=#ffffff;strokeColor=#3700CC;" vertex="1" parent="1">
          <mxGeometry x="333" y="824" width="100" height="20" as="geometry" />
        </mxCell>
        <mxCell id="v2bIIQAoZHvwmQP850kH-88" value="smalcart.php" style="rounded=1;whiteSpace=wrap;html=1;fillColor=#6a00ff;fontColor=#ffffff;strokeColor=#3700CC;" vertex="1" parent="1">
          <mxGeometry x="373" y="744" width="100" height="20" as="geometry" />
        </mxCell>
        <mxCell id="v2bIIQAoZHvwmQP850kH-91" value="menu.php" style="rounded=1;whiteSpace=wrap;html=1;fillColor=#6a00ff;fontColor=#ffffff;strokeColor=#3700CC;" vertex="1" parent="1">
          <mxGeometry x="373" y="714" width="100" height="20" as="geometry" />
        </mxCell>
        <mxCell id="v2bIIQAoZHvwmQP850kH-92" value="database.php" style="rounded=1;whiteSpace=wrap;html=1;fillColor=#6a00ff;fontColor=#ffffff;strokeColor=#3700CC;" vertex="1" parent="1">
          <mxGeometry x="373" y="684" width="100" height="20" as="geometry" />
        </mxCell>
        <mxCell id="v2bIIQAoZHvwmQP850kH-93" value="basecontroller.php" style="rounded=1;whiteSpace=wrap;html=1;fillColor=#6a00ff;fontColor=#ffffff;strokeColor=#3700CC;" vertex="1" parent="1">
          <mxGeometry x="373" y="654" width="100" height="20" as="geometry" />
        </mxCell>
        <mxCell id="v2bIIQAoZHvwmQP850kH-94" value="application.php" style="rounded=1;whiteSpace=wrap;html=1;fillColor=#6a00ff;fontColor=#ffffff;strokeColor=#3700CC;" vertex="1" parent="1">
          <mxGeometry x="373" y="624" width="100" height="20" as="geometry" />
        </mxCell>
        <mxCell id="v2bIIQAoZHvwmQP850kH-100" value="none.png" style="rounded=1;whiteSpace=wrap;html=1;fillColor=#6a00ff;fontColor=#ffffff;strokeColor=#3700CC;" vertex="1" parent="1">
          <mxGeometry x="373" y="574" width="100" height="20" as="geometry" />
        </mxCell>
        <mxCell id="v2bIIQAoZHvwmQP850kH-101" value="main.jpg" style="rounded=1;whiteSpace=wrap;html=1;fillColor=#6a00ff;fontColor=#ffffff;strokeColor=#3700CC;" vertex="1" parent="1">
          <mxGeometry x="373" y="544" width="100" height="20" as="geometry" />
        </mxCell>
        <mxCell id="v2bIIQAoZHvwmQP850kH-102" value="logo.png" style="rounded=1;whiteSpace=wrap;html=1;fillColor=#6a00ff;fontColor=#ffffff;strokeColor=#3700CC;" vertex="1" parent="1">
          <mxGeometry x="373" y="514" width="100" height="20" as="geometry" />
        </mxCell>
        <mxCell id="v2bIIQAoZHvwmQP850kH-128" style="edgeStyle=orthogonalEdgeStyle;rounded=0;orthogonalLoop=1;jettySize=auto;html=1;entryX=1;entryY=0.5;entryDx=0;entryDy=0;" edge="1" parent="1" source="v2bIIQAoZHvwmQP850kH-111" target="v2bIIQAoZHvwmQP850kH-119">
          <mxGeometry relative="1" as="geometry" />
        </mxCell>
        <mxCell id="v2bIIQAoZHvwmQP850kH-129" style="edgeStyle=orthogonalEdgeStyle;rounded=0;orthogonalLoop=1;jettySize=auto;html=1;entryX=1;entryY=0.5;entryDx=0;entryDy=0;" edge="1" parent="1" source="v2bIIQAoZHvwmQP850kH-111" target="v2bIIQAoZHvwmQP850kH-120">
          <mxGeometry relative="1" as="geometry" />
        </mxCell>
        <mxCell id="v2bIIQAoZHvwmQP850kH-130" style="edgeStyle=orthogonalEdgeStyle;rounded=0;orthogonalLoop=1;jettySize=auto;html=1;entryX=1;entryY=0.5;entryDx=0;entryDy=0;" edge="1" parent="1" source="v2bIIQAoZHvwmQP850kH-111" target="v2bIIQAoZHvwmQP850kH-121">
          <mxGeometry relative="1" as="geometry" />
        </mxCell>
        <mxCell id="v2bIIQAoZHvwmQP850kH-131" style="edgeStyle=orthogonalEdgeStyle;rounded=0;orthogonalLoop=1;jettySize=auto;html=1;entryX=1;entryY=0.5;entryDx=0;entryDy=0;" edge="1" parent="1" source="v2bIIQAoZHvwmQP850kH-111" target="v2bIIQAoZHvwmQP850kH-122">
          <mxGeometry relative="1" as="geometry" />
        </mxCell>
        <mxCell id="v2bIIQAoZHvwmQP850kH-132" style="edgeStyle=orthogonalEdgeStyle;rounded=0;orthogonalLoop=1;jettySize=auto;html=1;entryX=1;entryY=0.5;entryDx=0;entryDy=0;" edge="1" parent="1" source="v2bIIQAoZHvwmQP850kH-111" target="v2bIIQAoZHvwmQP850kH-123">
          <mxGeometry relative="1" as="geometry" />
        </mxCell>
        <mxCell id="v2bIIQAoZHvwmQP850kH-133" style="edgeStyle=orthogonalEdgeStyle;rounded=0;orthogonalLoop=1;jettySize=auto;html=1;entryX=1;entryY=0.5;entryDx=0;entryDy=0;" edge="1" parent="1" source="v2bIIQAoZHvwmQP850kH-111" target="v2bIIQAoZHvwmQP850kH-124">
          <mxGeometry relative="1" as="geometry" />
        </mxCell>
        <mxCell id="v2bIIQAoZHvwmQP850kH-135" style="edgeStyle=orthogonalEdgeStyle;rounded=0;orthogonalLoop=1;jettySize=auto;html=1;entryX=1;entryY=0.5;entryDx=0;entryDy=0;" edge="1" parent="1" source="v2bIIQAoZHvwmQP850kH-111" target="v2bIIQAoZHvwmQP850kH-125">
          <mxGeometry relative="1" as="geometry" />
        </mxCell>
        <mxCell id="v2bIIQAoZHvwmQP850kH-111" value="controllers" style="rounded=1;whiteSpace=wrap;html=1;fillColor=#fff2cc;strokeColor=#d6b656;" vertex="1" parent="1">
          <mxGeometry x="459" y="424" width="100" height="20" as="geometry" />
        </mxCell>
        <mxCell id="v2bIIQAoZHvwmQP850kH-143" style="edgeStyle=orthogonalEdgeStyle;rounded=0;orthogonalLoop=1;jettySize=auto;html=1;entryX=0;entryY=0.5;entryDx=0;entryDy=0;" edge="1" parent="1" source="v2bIIQAoZHvwmQP850kH-113" target="v2bIIQAoZHvwmQP850kH-136">
          <mxGeometry relative="1" as="geometry">
            <Array as="points">
              <mxPoint x="699" y="464" />
              <mxPoint x="699" y="164" />
            </Array>
          </mxGeometry>
        </mxCell>
        <mxCell id="v2bIIQAoZHvwmQP850kH-144" style="edgeStyle=orthogonalEdgeStyle;rounded=0;orthogonalLoop=1;jettySize=auto;html=1;entryX=0;entryY=0.5;entryDx=0;entryDy=0;" edge="1" parent="1" source="v2bIIQAoZHvwmQP850kH-113" target="v2bIIQAoZHvwmQP850kH-137">
          <mxGeometry relative="1" as="geometry">
            <Array as="points">
              <mxPoint x="699" y="464" />
              <mxPoint x="699" y="194" />
            </Array>
          </mxGeometry>
        </mxCell>
        <mxCell id="v2bIIQAoZHvwmQP850kH-145" style="edgeStyle=orthogonalEdgeStyle;rounded=0;orthogonalLoop=1;jettySize=auto;html=1;entryX=0;entryY=0.5;entryDx=0;entryDy=0;" edge="1" parent="1" source="v2bIIQAoZHvwmQP850kH-113" target="v2bIIQAoZHvwmQP850kH-139">
          <mxGeometry relative="1" as="geometry">
            <Array as="points">
              <mxPoint x="699" y="464" />
              <mxPoint x="699" y="224" />
            </Array>
          </mxGeometry>
        </mxCell>
        <mxCell id="v2bIIQAoZHvwmQP850kH-146" style="edgeStyle=orthogonalEdgeStyle;rounded=0;orthogonalLoop=1;jettySize=auto;html=1;entryX=0;entryY=0.5;entryDx=0;entryDy=0;" edge="1" parent="1" source="v2bIIQAoZHvwmQP850kH-113" target="v2bIIQAoZHvwmQP850kH-140">
          <mxGeometry relative="1" as="geometry">
            <Array as="points">
              <mxPoint x="699" y="464" />
              <mxPoint x="699" y="254" />
            </Array>
          </mxGeometry>
        </mxCell>
        <mxCell id="v2bIIQAoZHvwmQP850kH-147" style="edgeStyle=orthogonalEdgeStyle;rounded=0;orthogonalLoop=1;jettySize=auto;html=1;entryX=0;entryY=0.5;entryDx=0;entryDy=0;" edge="1" parent="1" source="v2bIIQAoZHvwmQP850kH-113" target="v2bIIQAoZHvwmQP850kH-141">
          <mxGeometry relative="1" as="geometry">
            <Array as="points">
              <mxPoint x="699" y="464" />
              <mxPoint x="699" y="284" />
            </Array>
          </mxGeometry>
        </mxCell>
        <mxCell id="v2bIIQAoZHvwmQP850kH-148" style="edgeStyle=orthogonalEdgeStyle;rounded=0;orthogonalLoop=1;jettySize=auto;html=1;entryX=0;entryY=0.5;entryDx=0;entryDy=0;" edge="1" parent="1" source="v2bIIQAoZHvwmQP850kH-113" target="v2bIIQAoZHvwmQP850kH-142">
          <mxGeometry relative="1" as="geometry">
            <Array as="points">
              <mxPoint x="699" y="464" />
              <mxPoint x="699" y="314" />
            </Array>
          </mxGeometry>
        </mxCell>
        <mxCell id="v2bIIQAoZHvwmQP850kH-113" value="models" style="rounded=1;whiteSpace=wrap;html=1;fillColor=#fff2cc;strokeColor=#d6b656;" vertex="1" parent="1">
          <mxGeometry x="459" y="454" width="100" height="20" as="geometry" />
        </mxCell>
        <mxCell id="v2bIIQAoZHvwmQP850kH-156" style="edgeStyle=orthogonalEdgeStyle;rounded=0;orthogonalLoop=1;jettySize=auto;html=1;entryX=1;entryY=0.5;entryDx=0;entryDy=0;" edge="1" parent="1" source="v2bIIQAoZHvwmQP850kH-114" target="v2bIIQAoZHvwmQP850kH-149">
          <mxGeometry relative="1" as="geometry" />
        </mxCell>
        <mxCell id="v2bIIQAoZHvwmQP850kH-157" style="edgeStyle=orthogonalEdgeStyle;rounded=0;orthogonalLoop=1;jettySize=auto;html=1;entryX=1;entryY=0.5;entryDx=0;entryDy=0;" edge="1" parent="1" source="v2bIIQAoZHvwmQP850kH-114" target="v2bIIQAoZHvwmQP850kH-150">
          <mxGeometry relative="1" as="geometry" />
        </mxCell>
        <mxCell id="v2bIIQAoZHvwmQP850kH-158" style="edgeStyle=orthogonalEdgeStyle;rounded=0;orthogonalLoop=1;jettySize=auto;html=1;entryX=1;entryY=0.5;entryDx=0;entryDy=0;" edge="1" parent="1" source="v2bIIQAoZHvwmQP850kH-114" target="v2bIIQAoZHvwmQP850kH-151">
          <mxGeometry relative="1" as="geometry" />
        </mxCell>
        <mxCell id="v2bIIQAoZHvwmQP850kH-160" style="edgeStyle=orthogonalEdgeStyle;rounded=0;orthogonalLoop=1;jettySize=auto;html=1;entryX=1;entryY=0.5;entryDx=0;entryDy=0;" edge="1" parent="1" source="v2bIIQAoZHvwmQP850kH-114" target="v2bIIQAoZHvwmQP850kH-152">
          <mxGeometry relative="1" as="geometry" />
        </mxCell>
        <mxCell id="v2bIIQAoZHvwmQP850kH-161" style="edgeStyle=orthogonalEdgeStyle;rounded=0;orthogonalLoop=1;jettySize=auto;html=1;entryX=1;entryY=0.5;entryDx=0;entryDy=0;" edge="1" parent="1" source="v2bIIQAoZHvwmQP850kH-114" target="v2bIIQAoZHvwmQP850kH-153">
          <mxGeometry relative="1" as="geometry" />
        </mxCell>
        <mxCell id="v2bIIQAoZHvwmQP850kH-162" style="edgeStyle=orthogonalEdgeStyle;rounded=0;orthogonalLoop=1;jettySize=auto;html=1;entryX=1;entryY=0.5;entryDx=0;entryDy=0;" edge="1" parent="1" source="v2bIIQAoZHvwmQP850kH-114" target="v2bIIQAoZHvwmQP850kH-154">
          <mxGeometry relative="1" as="geometry" />
        </mxCell>
        <mxCell id="v2bIIQAoZHvwmQP850kH-163" style="edgeStyle=orthogonalEdgeStyle;rounded=0;orthogonalLoop=1;jettySize=auto;html=1;entryX=1;entryY=0.5;entryDx=0;entryDy=0;" edge="1" parent="1" source="v2bIIQAoZHvwmQP850kH-114" target="v2bIIQAoZHvwmQP850kH-155">
          <mxGeometry relative="1" as="geometry" />
        </mxCell>
        <mxCell id="v2bIIQAoZHvwmQP850kH-114" value="views" style="rounded=1;whiteSpace=wrap;html=1;fillColor=#fff2cc;strokeColor=#d6b656;" vertex="1" parent="1">
          <mxGeometry x="459" y="484" width="100" height="20" as="geometry" />
        </mxCell>
        <mxCell id="v2bIIQAoZHvwmQP850kH-119" value="card.php" style="rounded=1;whiteSpace=wrap;html=1;fillColor=#6a00ff;fontColor=#ffffff;strokeColor=#3700CC;" vertex="1" parent="1">
          <mxGeometry x="569" y="154" width="100" height="20" as="geometry" />
        </mxCell>
        <mxCell id="v2bIIQAoZHvwmQP850kH-120" value="catalog.php" style="rounded=1;whiteSpace=wrap;html=1;fillColor=#6a00ff;fontColor=#ffffff;strokeColor=#3700CC;" vertex="1" parent="1">
          <mxGeometry x="569" y="184" width="100" height="20" as="geometry" />
        </mxCell>
        <mxCell id="v2bIIQAoZHvwmQP850kH-121" value="enter.php" style="rounded=1;whiteSpace=wrap;html=1;fillColor=#6a00ff;fontColor=#ffffff;strokeColor=#3700CC;" vertex="1" parent="1">
          <mxGeometry x="569" y="214" width="100" height="20" as="geometry" />
        </mxCell>
        <mxCell id="v2bIIQAoZHvwmQP850kH-122" value="feedback.php" style="rounded=1;whiteSpace=wrap;html=1;fillColor=#6a00ff;fontColor=#ffffff;strokeColor=#3700CC;" vertex="1" parent="1">
          <mxGeometry x="569" y="244" width="100" height="20" as="geometry" />
        </mxCell>
        <mxCell id="v2bIIQAoZHvwmQP850kH-123" value="index.php" style="rounded=1;whiteSpace=wrap;html=1;fillColor=#6a00ff;fontColor=#ffffff;strokeColor=#3700CC;" vertex="1" parent="1">
          <mxGeometry x="569" y="274" width="100" height="20" as="geometry" />
        </mxCell>
        <mxCell id="v2bIIQAoZHvwmQP850kH-124" value="order.php" style="rounded=1;whiteSpace=wrap;html=1;fillColor=#6a00ff;fontColor=#ffffff;strokeColor=#3700CC;" vertex="1" parent="1">
          <mxGeometry x="569" y="304" width="100" height="20" as="geometry" />
        </mxCell>
        <mxCell id="v2bIIQAoZHvwmQP850kH-125" value="product.php" style="rounded=1;whiteSpace=wrap;html=1;fillColor=#6a00ff;fontColor=#ffffff;strokeColor=#3700CC;" vertex="1" parent="1">
          <mxGeometry x="569" y="334" width="100" height="20" as="geometry" />
        </mxCell>
        <mxCell id="v2bIIQAoZHvwmQP850kH-136" value="auth.php" style="rounded=1;whiteSpace=wrap;html=1;fillColor=#6a00ff;fontColor=#ffffff;strokeColor=#3700CC;" vertex="1" parent="1">
          <mxGeometry x="719" y="154" width="100" height="20" as="geometry" />
        </mxCell>
        <mxCell id="v2bIIQAoZHvwmQP850kH-137" value="card.php" style="rounded=1;whiteSpace=wrap;html=1;fillColor=#6a00ff;fontColor=#ffffff;strokeColor=#3700CC;" vertex="1" parent="1">
          <mxGeometry x="719" y="184" width="100" height="20" as="geometry" />
        </mxCell>
        <mxCell id="v2bIIQAoZHvwmQP850kH-139" value="catalog.php" style="rounded=1;whiteSpace=wrap;html=1;fillColor=#6a00ff;fontColor=#ffffff;strokeColor=#3700CC;" vertex="1" parent="1">
          <mxGeometry x="719" y="214" width="100" height="20" as="geometry" />
        </mxCell>
        <mxCell id="v2bIIQAoZHvwmQP850kH-140" value="feedback.php" style="rounded=1;whiteSpace=wrap;html=1;fillColor=#6a00ff;fontColor=#ffffff;strokeColor=#3700CC;" vertex="1" parent="1">
          <mxGeometry x="719" y="244" width="100" height="20" as="geometry" />
        </mxCell>
        <mxCell id="v2bIIQAoZHvwmQP850kH-141" value="order.php" style="rounded=1;whiteSpace=wrap;html=1;fillColor=#6a00ff;fontColor=#ffffff;strokeColor=#3700CC;" vertex="1" parent="1">
          <mxGeometry x="719" y="274" width="100" height="20" as="geometry" />
        </mxCell>
        <mxCell id="v2bIIQAoZHvwmQP850kH-142" value="product.php" style="rounded=1;whiteSpace=wrap;html=1;fillColor=#6a00ff;fontColor=#ffffff;strokeColor=#3700CC;" vertex="1" parent="1">
          <mxGeometry x="719" y="304" width="100" height="20" as="geometry" />
        </mxCell>
        <mxCell id="v2bIIQAoZHvwmQP850kH-149" value="cart.php" style="rounded=1;whiteSpace=wrap;html=1;fillColor=#6a00ff;fontColor=#ffffff;strokeColor=#3700CC;" vertex="1" parent="1">
          <mxGeometry x="569" y="514" width="100" height="20" as="geometry" />
        </mxCell>
        <mxCell id="v2bIIQAoZHvwmQP850kH-150" value="catalog.php" style="rounded=1;whiteSpace=wrap;html=1;fillColor=#6a00ff;fontColor=#ffffff;strokeColor=#3700CC;" vertex="1" parent="1">
          <mxGeometry x="569" y="544" width="100" height="20" as="geometry" />
        </mxCell>
        <mxCell id="v2bIIQAoZHvwmQP850kH-151" value="enter.php" style="rounded=1;whiteSpace=wrap;html=1;fillColor=#6a00ff;fontColor=#ffffff;strokeColor=#3700CC;" vertex="1" parent="1">
          <mxGeometry x="569" y="574" width="100" height="20" as="geometry" />
        </mxCell>
        <mxCell id="v2bIIQAoZHvwmQP850kH-152" value="feedback.php" style="rounded=1;whiteSpace=wrap;html=1;fillColor=#6a00ff;fontColor=#ffffff;strokeColor=#3700CC;" vertex="1" parent="1">
          <mxGeometry x="569" y="604" width="100" height="20" as="geometry" />
        </mxCell>
        <mxCell id="v2bIIQAoZHvwmQP850kH-153" value="index.php" style="rounded=1;whiteSpace=wrap;html=1;fillColor=#6a00ff;fontColor=#ffffff;strokeColor=#3700CC;" vertex="1" parent="1">
          <mxGeometry x="569" y="634" width="100" height="20" as="geometry" />
        </mxCell>
        <mxCell id="v2bIIQAoZHvwmQP850kH-154" value="enter.php" style="rounded=1;whiteSpace=wrap;html=1;fillColor=#6a00ff;fontColor=#ffffff;strokeColor=#3700CC;" vertex="1" parent="1">
          <mxGeometry x="569" y="664" width="100" height="20" as="geometry" />
        </mxCell>
        <mxCell id="v2bIIQAoZHvwmQP850kH-155" value="product.php" style="rounded=1;whiteSpace=wrap;html=1;fillColor=#6a00ff;fontColor=#ffffff;strokeColor=#3700CC;" vertex="1" parent="1">
          <mxGeometry x="569" y="694" width="100" height="20" as="geometry" />
        </mxCell>
      </root>
    </mxGraphModel>
  </diagram>
</mxfile>
